<?xml version="1.0" encoding="UTF-8" standalone="no"?>
<svg
   xmlns:dc="http://purl.org/dc/elements/1.1/"
   xmlns:cc="http://creativecommons.org/ns#"
   xmlns:rdf="http://www.w3.org/1999/02/22-rdf-syntax-ns#"
   xmlns:svg="http://www.w3.org/2000/svg"
   xmlns="http://www.w3.org/2000/svg"
   xmlns:sodipodi="http://sodipodi.sourceforge.net/DTD/sodipodi-0.dtd"
   xmlns:inkscape="http://www.inkscape.org/namespaces/inkscape"
   viewBox="0 0 16 16"
   fill-rule="evenodd"
   clip-rule="evenodd"
   stroke-linejoin="round"
   stroke-miterlimit="1.414"
   version="1.1"
   id="svg4"
   sodipodi:docname="docker.svg"
   inkscape:version="0.92.2 5c3e80d, 2017-08-06">
  <metadata
     id="metadata10">
    <rdf:RDF>
      <cc:Work
         rdf:about="">
        <dc:format>image/svg+xml</dc:format>
        <dc:type
           rdf:resource="http://purl.org/dc/dcmitype/StillImage" />
      </cc:Work>
    </rdf:RDF>
  </metadata>
  <defs
     id="defs8" />
  <sodipodi:namedview
     pagecolor="#ffffff"
     bordercolor="#666666"
     borderopacity="1"
     objecttolerance="10"
     gridtolerance="10"
     guidetolerance="10"
     inkscape:pageopacity="0"
     inkscape:pageshadow="2"
     inkscape:window-width="1920"
     inkscape:window-height="1025"
     id="namedview6"
     showgrid="false"
     inkscape:zoom="14.75"
     inkscape:cx="8"
     inkscape:cy="8"
     inkscape:window-x="0"
     inkscape:window-y="27"
     inkscape:window-maximized="1"
     inkscape:current-layer="svg4" />
  <path
     d="M3.212 11.518c-.456 0-.87-.373-.87-.828 0-.455.373-.828.87-.828.496 0 .87.373.87.828 0 .455-.415.828-.87.828zm10.677-4.51c-.09-.663-.5-1.2-1.04-1.615l-.21-.166-.17.207c-.33.373-.46 1.035-.42 1.53.04.374.16.746.37 1.036-.17.083-.38.166-.54.248-.38.124-.75.166-1.12.166H.06l-.04.248c-.08.787.04 1.614.375 2.36l.166.29v.04c1 1.656 2.78 2.4 4.72 2.4 3.73 0 6.79-1.613 8.24-5.09.95.042 1.91-.207 2.36-1.117l.12-.207-.2-.124c-.54-.33-1.28-.373-1.9-.207zm-5.34-.663H6.93V7.96h1.62V6.344zm0-2.028H6.93V5.93h1.62V4.318zm0-2.07H6.93V3.86h1.62V2.248zm1.98 4.098H8.92V7.96h1.614V6.344zm-6 0H2.92V7.96h1.614V6.344zm2.02 0h-1.6V7.96h1.61V6.344zm-4.02 0H.93V7.96h1.62V6.344zm4.02-2.028h-1.6V5.93h1.61V4.318zm-2.03 0h-1.6V5.93h1.61V4.318z"
     fill-rule="nonzero"
     id="path2"
     style="fill:#fcfcfc;fill-opacity:1" />
</svg>
